<?xml version="1.0" encoding="iso-8859-1"?>
<!-- Generator: Adobe Illustrator 16.0.0, SVG Export Plug-In . SVG Version: 6.00 Build 0)  -->
<!DOCTYPE svg PUBLIC "-//W3C//DTD SVG 1.1//EN" "http://www.w3.org/Graphics/SVG/1.1/DTD/svg11.dtd">
<svg xmlns="http://www.w3.org/2000/svg" xmlns:xlink="http://www.w3.org/1999/xlink" version="1.1" id="Capa_1" x="0px" y="0px" width="512px" height="512px" viewBox="0 0 327.573 327.573" style="enable-background:new 0 0 327.573 327.573;" xml:space="preserve">
<g>
	<path d="M327.573,59.513L268.055,0L5.709,262.343L0,327.573l27.492-2.413l0.14,0.144l0.163-0.166   l37.433-3.276L327.573,59.513z M311.014,59.513l-17.079,17.08L250.98,33.639l17.08-17.08L311.014,59.513z M36.718,247.898   L229.761,54.855l6.725,6.728l-193.04,193.04L36.718,247.898z M244.765,69.863l15.01,15.01L66.732,277.912l-15.007-15.01   L244.765,69.863z M268.055,93.155l4.654,4.657L79.672,290.853l-4.654-4.654L268.055,93.155z M238.041,46.579l4.66-4.657   l42.953,42.956L281,89.533L238.041,46.579z M12.883,314.691l0.334-3.803l3.465,3.465L12.883,314.691z M31.912,313.021l-17.36-17.36   l2.458-28.053l11.428-11.43l42.957,42.953l-11.43,11.431L31.912,313.021z" fill="#FFFFFF"/>
</g>
<g>
</g>
<g>
</g>
<g>
</g>
<g>
</g>
<g>
</g>
<g>
</g>
<g>
</g>
<g>
</g>
<g>
</g>
<g>
</g>
<g>
</g>
<g>
</g>
<g>
</g>
<g>
</g>
<g>
</g>
</svg>
